<?xml version="1.0" encoding="utf-8"?>
<!-- Generator: Adobe Illustrator 19.2.0, SVG Export Plug-In . SVG Version: 6.00 Build 0)  -->
<svg version="1.1" id="Layer_1" xmlns="http://www.w3.org/2000/svg" xmlns:xlink="http://www.w3.org/1999/xlink" x="0px" y="0px"
	 viewBox="0 0 154 49" style="enable-background:new 0 0 154 49;" xml:space="preserve">
<style type="text/css">
	.st0{fill:url(#SVGID_1_);}
	.st1{fill:url(#SVGID_2_);}
	.st2{fill:url(#SVGID_3_);}
	.st3{fill:url(#SVGID_4_);}
	.st4{fill:url(#SVGID_5_);}
	.st5{fill:url(#SVGID_6_);}
	.st6{fill:url(#SVGID_7_);}
	.st7{fill:url(#SVGID_8_);}
	.st8{fill:url(#SVGID_9_);}
	.st9{fill:url(#SVGID_10_);}
	.st10{fill:url(#SVGID_11_);}
	.st11{fill:url(#SVGID_12_);}
	.st12{fill:url(#SVGID_13_);}
	.st13{fill:url(#SVGID_14_);}
	.st14{fill:url(#SVGID_15_);}
	.st15{fill:url(#SVGID_16_);}
	.st16{fill:url(#SVGID_17_);}
	.st17{fill:url(#SVGID_18_);}
	.st18{fill:url(#SVGID_19_);}
	.st19{fill:url(#SVGID_20_);}
	.st20{fill:#222F38;}
</style>
<linearGradient id="SVGID_1_" gradientUnits="userSpaceOnUse" x1="27.5184" y1="42.5664" x2="27.5184" y2="52.0422" gradientTransform="matrix(1 0 0 -1 0 50)">
	<stop  offset="0" style="stop-color:#8F2B83"/>
	<stop  offset="5.671480e-002" style="stop-color:#862C84"/>
	<stop  offset="0.3369" style="stop-color:#602E8A"/>
	<stop  offset="0.5956" style="stop-color:#45308E"/>
	<stop  offset="0.823" style="stop-color:#343191"/>
	<stop  offset="0.9944" style="stop-color:#2E3192"/>
</linearGradient>
<path class="st0" d="M27.5,11.7c-0.9,0-1.7-0.8-1.7-1.7V3.9c0-0.9,0.8-1.7,1.7-1.7c0.9,0,1.7,0.8,1.7,1.7V10
	C29.2,11,28.4,11.7,27.5,11.7z"/>
<linearGradient id="SVGID_2_" gradientUnits="userSpaceOnUse" x1="40.484" y1="40.6786" x2="26.5695" y2="48" gradientTransform="matrix(1 0 0 -1 0 50)">
	<stop  offset="0" style="stop-color:#8F2B83"/>
	<stop  offset="0.1022" style="stop-color:#A02888"/>
	<stop  offset="0.3687" style="stop-color:#C62293"/>
	<stop  offset="0.6149" style="stop-color:#E11E9B"/>
	<stop  offset="0.8313" style="stop-color:#F21BA0"/>
	<stop  offset="0.9944" style="stop-color:#F81AA2"/>
</linearGradient>
<path class="st1" d="M42,9.4c-0.5,0.7-1.4,0.8-2.2,0.5L27.6,3.5c-0.8-0.4-1.8,0.2-1.8,1.1V3.2c0-2.1,2.2-3.4,4.1-2.4l11.5,6.1
	C42.4,7.4,42.7,8.6,42,9.4z"/>
<linearGradient id="SVGID_3_" gradientUnits="userSpaceOnUse" x1="28.6485" y1="33.5975" x2="50.5898" y2="46.3727" gradientTransform="matrix(1 0 0 -1 0 50)">
	<stop  offset="0" style="stop-color:#02A5DC"/>
	<stop  offset="0.1446" style="stop-color:#029CD7"/>
	<stop  offset="0.385" style="stop-color:#0182CB"/>
	<stop  offset="0.6898" style="stop-color:#0159B7"/>
	<stop  offset="0.9944" style="stop-color:#00299F"/>
</linearGradient>
<path class="st2" d="M41.8,11.7l-11.1,6.2c-2.2,1.2-4.7,1.9-7.2,1.9v-3.3c1.7,0,3.4-0.4,4.9-1.3l12.3-6.8c0.7-0.4,0.7-1.4,0-1.8
	l0.9,0.5C43.6,8,43.6,10.7,41.8,11.7z"/>
<linearGradient id="SVGID_4_" gradientUnits="userSpaceOnUse" x1="36.1376" y1="14.6783" x2="44.3727" y2="9.965" gradientTransform="matrix(1 0 0 -1 0 50)">
	<stop  offset="0" style="stop-color:#8F2B83"/>
	<stop  offset="5.671480e-002" style="stop-color:#862C84"/>
	<stop  offset="0.3369" style="stop-color:#602E8A"/>
	<stop  offset="0.5956" style="stop-color:#45308E"/>
	<stop  offset="0.823" style="stop-color:#343191"/>
	<stop  offset="0.9944" style="stop-color:#2E3192"/>
</linearGradient>
<path class="st3" d="M32.5,33.3c0.5-0.8,1.5-1.1,2.3-0.6l5.4,3c0.8,0.5,1.1,1.5,0.6,2.3c-0.5,0.8-1.5,1.1-2.3,0.6l-5.3-3
	C32.3,35.1,32.1,34.1,32.5,33.3z"/>
<linearGradient id="SVGID_5_" gradientUnits="userSpaceOnUse" x1="28.3267" y1="4.0758" x2="41.5814" y2="12.6492" gradientTransform="matrix(1 0 0 -1 0 50)">
	<stop  offset="0" style="stop-color:#8F2B83"/>
	<stop  offset="0.1022" style="stop-color:#A02888"/>
	<stop  offset="0.3687" style="stop-color:#C62293"/>
	<stop  offset="0.6149" style="stop-color:#E11E9B"/>
	<stop  offset="0.8313" style="stop-color:#F21BA0"/>
	<stop  offset="0.9944" style="stop-color:#F81AA2"/>
</linearGradient>
<path class="st4" d="M27.5,47c-0.3-0.7,0-1.6,0.7-2.1l11.7-7.4c0.8-0.5,0.7-1.7,0-2.1L41,36c1.8,1,1.9,3.6,0.1,4.8l-11.1,7
	C29.1,48.3,27.9,48,27.5,47z"/>
<linearGradient id="SVGID_6_" gradientUnits="userSpaceOnUse" x1="28.4661" y1="17.9966" x2="28.3306" y2="-7.03" gradientTransform="matrix(1 0 0 -1 0 50)">
	<stop  offset="0" style="stop-color:#02A5DC"/>
	<stop  offset="0.1446" style="stop-color:#029CD7"/>
	<stop  offset="0.385" style="stop-color:#0182CB"/>
	<stop  offset="0.6898" style="stop-color:#0159B7"/>
	<stop  offset="0.9944" style="stop-color:#00299F"/>
</linearGradient>
<path class="st5" d="M25.9,45.5L25.8,33c0-2.5,0.6-4.9,1.9-7l3,1.7c-0.8,1.5-1.3,3.1-1.3,4.8l0.1,13.9c0,0.8,0.9,1.3,1.6,0.9
	l-0.9,0.5C28.3,48.9,25.9,47.6,25.9,45.5z"/>
<linearGradient id="SVGID_7_" gradientUnits="userSpaceOnUse" x1="40.0744" y1="21.2379" x2="48.3119" y2="16.5474" gradientTransform="matrix(1 0 0 -1 0 50)">
	<stop  offset="0" style="stop-color:#8F2B83"/>
	<stop  offset="5.671480e-002" style="stop-color:#862C84"/>
	<stop  offset="0.3369" style="stop-color:#602E8A"/>
	<stop  offset="0.5956" style="stop-color:#45308E"/>
	<stop  offset="0.823" style="stop-color:#343191"/>
	<stop  offset="0.9944" style="stop-color:#2E3192"/>
</linearGradient>
<path class="st6" d="M38.7,26l5.4,3c0.8,0.5,1.1,1.5,0.6,2.3c-0.5,0.8-1.5,1.1-2.3,0.6L37,29c-0.8-0.5-1.1-1.5-0.6-2.3
	C36.9,25.9,37.9,25.6,38.7,26z"/>
<linearGradient id="SVGID_8_" gradientUnits="userSpaceOnUse" x1="45.3502" y1="33.4355" x2="44.7216" y2="17.6427" gradientTransform="matrix(1 0 0 -1 0 50)">
	<stop  offset="0" style="stop-color:#8F2B83"/>
	<stop  offset="0.1022" style="stop-color:#A02888"/>
	<stop  offset="0.3687" style="stop-color:#C62293"/>
	<stop  offset="0.6149" style="stop-color:#E11E9B"/>
	<stop  offset="0.8313" style="stop-color:#F21BA0"/>
	<stop  offset="0.9944" style="stop-color:#F81AA2"/>
</linearGradient>
<path class="st7" d="M45.8,15.4c1.1-0.2,2,0.7,2,1.7l-0.4,13.1c-0.1,2.1-2.3,3.4-4.1,2.3l-1.2-0.7c0.8,0.5,1.8-0.1,1.8-1L44.4,17
	C44.4,16.2,45,15.5,45.8,15.4z"/>
<linearGradient id="SVGID_9_" gradientUnits="userSpaceOnUse" x1="33.3922" y1="26.2779" x2="54.8904" y2="39.3511" gradientTransform="matrix(1 0 0 -1 0 50)">
	<stop  offset="0" style="stop-color:#02A5DC"/>
	<stop  offset="0.1446" style="stop-color:#029CD7"/>
	<stop  offset="0.385" style="stop-color:#0182CB"/>
	<stop  offset="0.6898" style="stop-color:#0159B7"/>
	<stop  offset="0.9944" style="stop-color:#00299F"/>
</linearGradient>
<path class="st8" d="M47.8,17.1l0,1c0-0.8-0.9-1.3-1.6-0.9l-12.1,7c-1.5,0.9-2.7,2.1-3.5,3.6l-2.9-1.6c1.2-2.1,3-3.9,5.1-5.1
	l10.9-6.3C45.6,13.6,47.9,15,47.8,17.1z"/>
<linearGradient id="SVGID_10_" gradientUnits="userSpaceOnUse" x1="11.5391" y1="14.6787" x2="3.179" y2="9.7605" gradientTransform="matrix(1 0 0 -1 0 50)">
	<stop  offset="0" style="stop-color:#8F2B83"/>
	<stop  offset="5.671480e-002" style="stop-color:#862C84"/>
	<stop  offset="0.3369" style="stop-color:#602E8A"/>
	<stop  offset="0.5956" style="stop-color:#45308E"/>
	<stop  offset="0.823" style="stop-color:#343191"/>
	<stop  offset="0.9944" style="stop-color:#2E3192"/>
</linearGradient>
<path class="st9" d="M14.6,35.6l-5.5,3c-0.9,0.5-1.9,0.2-2.4-0.6c-0.5-0.8-0.2-1.9,0.6-2.3l5.5-3.1c0.9-0.5,1.9-0.2,2.4,0.6
	C15.8,34.1,15.5,35.1,14.6,35.6z"/>
<linearGradient id="SVGID_11_" gradientUnits="userSpaceOnUse" x1="19.4952" y1="4.0675" x2="6.2631" y2="12.6231" gradientTransform="matrix(1 0 0 -1 0 50)">
	<stop  offset="0" style="stop-color:#8F2B83"/>
	<stop  offset="0.1022" style="stop-color:#A02888"/>
	<stop  offset="0.3687" style="stop-color:#C62293"/>
	<stop  offset="0.6149" style="stop-color:#E11E9B"/>
	<stop  offset="0.8313" style="stop-color:#F21BA0"/>
	<stop  offset="0.9944" style="stop-color:#F81AA2"/>
</linearGradient>
<path class="st10" d="M20.3,47c-0.4,1-1.6,1.4-2.5,0.8l-11.1-7C5,39.7,5,37.1,6.8,36L8,35.4c-0.8,0.5-0.8,1.6,0,2.1l11.7,7.4
	C20.3,45.3,20.6,46.2,20.3,47z"/>
<linearGradient id="SVGID_12_" gradientUnits="userSpaceOnUse" x1="19.3359" y1="17.9996" x2="19.4712" y2="-7.0138" gradientTransform="matrix(1 0 0 -1 0 50)">
	<stop  offset="0" style="stop-color:#02A5DC"/>
	<stop  offset="0.1446" style="stop-color:#029CD7"/>
	<stop  offset="0.385" style="stop-color:#0182CB"/>
	<stop  offset="0.6898" style="stop-color:#0159B7"/>
	<stop  offset="0.9944" style="stop-color:#00299F"/>
</linearGradient>
<path class="st11" d="M17.7,47.7l-0.9-0.5c0.7,0.4,1.6-0.1,1.6-0.9l0.1-13.9c0-1.7-0.5-3.4-1.3-4.8l3-1.7c1.2,2.1,1.9,4.5,1.9,7
	l-0.1,12.5C21.9,47.6,19.5,48.9,17.7,47.7z"/>
<linearGradient id="SVGID_13_" gradientUnits="userSpaceOnUse" x1="7.6155" y1="21.2219" x2="-0.5133" y2="16.71" gradientTransform="matrix(1 0 0 -1 0 50)">
	<stop  offset="0" style="stop-color:#8F2B83"/>
	<stop  offset="5.671480e-002" style="stop-color:#862C84"/>
	<stop  offset="0.3369" style="stop-color:#602E8A"/>
	<stop  offset="0.5956" style="stop-color:#45308E"/>
	<stop  offset="0.823" style="stop-color:#343191"/>
	<stop  offset="0.9944" style="stop-color:#2E3192"/>
</linearGradient>
<path class="st12" d="M11.2,26.7c0.4,0.8,0.2,1.9-0.6,2.3l-5.2,3c-0.8,0.5-1.8,0.2-2.3-0.6c-0.4-0.8-0.2-1.9,0.6-2.3l5.2-3
	C9.7,25.6,10.7,25.9,11.2,26.7z"/>
<linearGradient id="SVGID_14_" gradientUnits="userSpaceOnUse" x1="2.4417" y1="33.435" x2="3.0672" y2="17.6421" gradientTransform="matrix(1 0 0 -1 0 50)">
	<stop  offset="0" style="stop-color:#8F2B83"/>
	<stop  offset="0.1022" style="stop-color:#A02888"/>
	<stop  offset="0.3687" style="stop-color:#C62293"/>
	<stop  offset="0.6149" style="stop-color:#E11E9B"/>
	<stop  offset="0.8313" style="stop-color:#F21BA0"/>
	<stop  offset="0.9944" style="stop-color:#F81AA2"/>
</linearGradient>
<path class="st13" d="M2,15.4c0.8,0.1,1.4,0.8,1.4,1.6l0.4,13.8c0,0.9,1,1.5,1.8,1l-1.2,0.7c-1.8,1-4.1-0.2-4.2-2.3L0,17.1
	C0,16,0.9,15.2,2,15.4z"/>
<linearGradient id="SVGID_15_" gradientUnits="userSpaceOnUse" x1="19.896" y1="42.6108" x2="19.896" y2="52.0869" gradientTransform="matrix(1 0 0 -1 0 50)">
	<stop  offset="0" style="stop-color:#8F2B83"/>
	<stop  offset="5.671480e-002" style="stop-color:#862C84"/>
	<stop  offset="0.3369" style="stop-color:#602E8A"/>
	<stop  offset="0.5956" style="stop-color:#45308E"/>
	<stop  offset="0.823" style="stop-color:#343191"/>
	<stop  offset="0.9944" style="stop-color:#2E3192"/>
</linearGradient>
<path class="st14" d="M18.3,10V3.9c0-0.9,0.7-1.7,1.6-1.7c0.9,0,1.6,0.8,1.6,1.7V10c0,0.9-0.7,1.7-1.6,1.7C19,11.7,18.3,11,18.3,10z
	"/>
<linearGradient id="SVGID_16_" gradientUnits="userSpaceOnUse" x1="7.0115" y1="40.8555" x2="20.799" y2="48.009" gradientTransform="matrix(1 0 0 -1 0 50)">
	<stop  offset="0" style="stop-color:#8F2B83"/>
	<stop  offset="0.1022" style="stop-color:#A02888"/>
	<stop  offset="0.3687" style="stop-color:#C62293"/>
	<stop  offset="0.6149" style="stop-color:#E11E9B"/>
	<stop  offset="0.8313" style="stop-color:#F21BA0"/>
	<stop  offset="0.9944" style="stop-color:#F81AA2"/>
</linearGradient>
<path class="st15" d="M5.5,9.4c-0.7-0.8-0.4-2,0.5-2.5l11.3-6c1.8-1,4,0.3,4,2.4v1.3c0-0.9-1-1.5-1.8-1.1l-12,6.4
	C6.9,10.2,6,10.1,5.5,9.4z"/>
<linearGradient id="SVGID_17_" gradientUnits="userSpaceOnUse" x1="18.7742" y1="33.6632" x2="-3.0294" y2="46.1986" gradientTransform="matrix(1 0 0 -1 0 50)">
	<stop  offset="0" style="stop-color:#02A5DC"/>
	<stop  offset="0.1446" style="stop-color:#029CD7"/>
	<stop  offset="0.385" style="stop-color:#0182CB"/>
	<stop  offset="0.6898" style="stop-color:#0159B7"/>
	<stop  offset="0.9944" style="stop-color:#00299F"/>
</linearGradient>
<path class="st16" d="M5.8,7.1l0.9-0.5C6,7,6,8,6.7,8.3l12.2,6.8c1.5,0.8,3.2,1.3,4.9,1.3v3.3c-2.4,0-4.9-0.6-7.1-1.9L5.7,11.7
	C3.9,10.7,4,8,5.8,7.1z"/>
<linearGradient id="SVGID_18_" gradientUnits="userSpaceOnUse" x1="14.4041" y1="26.276" x2="-7.0834" y2="39.3891" gradientTransform="matrix(1 0 0 -1 0 50)">
	<stop  offset="0" style="stop-color:#02A5DC"/>
	<stop  offset="0.1446" style="stop-color:#029CD7"/>
	<stop  offset="0.385" style="stop-color:#0182CB"/>
	<stop  offset="0.6898" style="stop-color:#0159B7"/>
	<stop  offset="0.9944" style="stop-color:#00299F"/>
</linearGradient>
<path class="st17" d="M4.1,14.7L15,21c2.2,1.2,3.9,3,5.2,5.1l-2.9,1.7c-0.8-1.4-2-2.7-3.5-3.5l-12.1-7C0.9,16.8,0,17.3,0,18.1l0-1
	C-0.1,15,2.2,13.6,4.1,14.7z"/>
<linearGradient id="SVGID_19_" gradientUnits="userSpaceOnUse" x1="149.091" y1="34.2553" x2="154.008" y2="34.2553" gradientTransform="matrix(1 0 0 -1 0 50)">
	<stop  offset="0" style="stop-color:#8F2B83"/>
	<stop  offset="0.1022" style="stop-color:#A02888"/>
	<stop  offset="0.3687" style="stop-color:#C62293"/>
	<stop  offset="0.6149" style="stop-color:#E11E9B"/>
	<stop  offset="0.8313" style="stop-color:#F21BA0"/>
	<stop  offset="0.9944" style="stop-color:#F81AA2"/>
</linearGradient>
<path class="st18" d="M153.3,17.5c-0.5,0.5-1,0.7-1.7,0.7s-1.3-0.2-1.8-0.7c-0.5-0.5-0.7-1.1-0.7-1.8c0-0.7,0.2-1.3,0.7-1.7
	c0.5-0.5,1.1-0.7,1.8-0.7s1.3,0.2,1.7,0.7c0.5,0.5,0.7,1,0.7,1.7C154,16.4,153.8,17,153.3,17.5z"/>
<linearGradient id="SVGID_20_" gradientUnits="userSpaceOnUse" x1="141.069" y1="34.2553" x2="145.986" y2="34.2553" gradientTransform="matrix(1 0 0 -1 0 50)">
	<stop  offset="0" style="stop-color:#8F2B83"/>
	<stop  offset="0.1022" style="stop-color:#A02888"/>
	<stop  offset="0.3687" style="stop-color:#C62293"/>
	<stop  offset="0.6149" style="stop-color:#E11E9B"/>
	<stop  offset="0.8313" style="stop-color:#F21BA0"/>
	<stop  offset="0.9944" style="stop-color:#F81AA2"/>
</linearGradient>
<path class="st19" d="M145.3,17.5c-0.5,0.5-1,0.7-1.7,0.7c-0.7,0-1.3-0.2-1.8-0.7c-0.5-0.5-0.7-1.1-0.7-1.8c0-0.7,0.2-1.3,0.7-1.7
	c0.5-0.5,1.1-0.7,1.8-0.7c0.7,0,1.3,0.2,1.7,0.7c0.5,0.5,0.7,1,0.7,1.7C146,16.4,145.8,17,145.3,17.5z"/>
<g>
	<path class="st20" d="M87.6,19.9h3.6v15h-3.5l-0.2-2.2c-0.9,1.8-3.2,2.6-4.9,2.6c-4.4,0-7.7-2.7-7.7-7.9c0-5.2,3.4-7.8,7.8-7.8
		c2,0,3.9,0.9,4.8,2.4L87.6,19.9z M78.6,27.3c0,2.9,2,4.6,4.4,4.6c5.8,0,5.8-9.1,0-9.1C80.6,22.8,78.6,24.5,78.6,27.3z"/>
	<path class="st20" d="M98.7,14.1v8.3c1.4-1.7,3.1-2.3,4.8-2.3c4.4,0,6.3,2.9,6.3,7.3v7.9H106v-7.8c0-2.7-1.5-3.9-3.5-3.9
		c-2.3,0-3.8,1.9-3.8,4.1v7.6h-3.8V14.1H98.7z"/>
	<path class="st20" d="M123.6,35.2v-8.3c0-2-1.1-3.9-3.2-3.9c-2.1,0-3.3,1.9-3.3,3.9v8.3h-3.9V19.7h3.6l0.3,1.9
		c0.8-1.6,2.6-2.1,4.1-2.1c1.9,0,3.8,0.8,4.6,2.9c1.4-2.2,3.2-2.8,5.3-2.8c4.5,0,6.6,2.7,6.6,7.3v8.4h-3.9v-8.4c0-2-0.9-3.8-3-3.8
		c-2.1,0-3.4,1.8-3.4,3.8v8.3L123.6,35.2z"/>
	<path class="st20" d="M141.9,20.3v15h3.4v-15H141.9z"/>
	<path class="st20" d="M149.9,20.3v15h3.4v-15H149.9z"/>
	<path class="st20" d="M73.1,35.3h-3.9l-8.8-12.9v12.9h-3.9V16.4h3.9l8.8,13v-13h3.9V35.3z"/>
</g>
</svg>
